<svg xmlns="http://www.w3.org/2000/svg" xmlns:xlink="http://www.w3.org/1999/xlink" viewBox="0 0 100 116"><defs><style>.cls-1{isolation:isolate;}.cls-2{fill:url(#linear-gradient);}.cls-3,.cls-4{fill:#f2e6d7;}.cls-3{opacity:0.5;}.cls-11,.cls-12,.cls-13,.cls-14,.cls-16,.cls-17,.cls-18,.cls-19,.cls-3,.cls-6,.cls-7,.cls-8,.cls-9{mix-blend-mode:multiply;}.cls-5{fill:url(#linear-gradient-2);}.cls-6{fill:url(#linear-gradient-3);}.cls-7{fill:url(#linear-gradient-4);}.cls-8{fill:url(#linear-gradient-5);}.cls-9{fill:url(#linear-gradient-6);}.cls-10{fill:url(#linear-gradient-7);}.cls-11{fill:url(#linear-gradient-8);}.cls-12{fill:url(#linear-gradient-9);}.cls-13{fill:url(#linear-gradient-10);}.cls-14{fill:url(#linear-gradient-11);}.cls-15{fill:url(#linear-gradient-12);}.cls-16{fill:url(#linear-gradient-13);}.cls-17{fill:url(#linear-gradient-14);}.cls-18{fill:url(#linear-gradient-15);}.cls-19{fill:url(#linear-gradient-16);}</style><linearGradient id="linear-gradient" x1="50" y1="92.94" x2="50" y2="1.19" gradientUnits="userSpaceOnUse"><stop offset="0" stop-color="#e6d1b6"/><stop offset="1" stop-color="#f2e6d7"/></linearGradient><linearGradient id="linear-gradient-2" x1="14.81" y1="98.14" x2="34.81" y2="98.14" xlink:href="#linear-gradient"/><linearGradient id="linear-gradient-3" x1="18.63" y1="103.31" x2="30.99" y2="103.31" xlink:href="#linear-gradient"/><linearGradient id="linear-gradient-4" x1="14.81" y1="98.33" x2="24.81" y2="98.33" xlink:href="#linear-gradient"/><linearGradient id="linear-gradient-5" x1="24.81" y1="93.93" x2="27.9" y2="93.93" xlink:href="#linear-gradient"/><linearGradient id="linear-gradient-6" x1="24.81" y1="98.33" x2="34.81" y2="98.33" xlink:href="#linear-gradient"/><linearGradient id="linear-gradient-7" x1="39.1" y1="104.14" x2="60.9" y2="104.14" xlink:href="#linear-gradient"/><linearGradient id="linear-gradient-8" x1="43.27" y1="109.77" x2="56.73" y2="109.77" xlink:href="#linear-gradient"/><linearGradient id="linear-gradient-9" x1="39.1" y1="104.35" x2="50" y2="104.35" xlink:href="#linear-gradient"/><linearGradient id="linear-gradient-10" x1="50" y1="99.56" x2="53.37" y2="99.56" xlink:href="#linear-gradient"/><linearGradient id="linear-gradient-11" x1="50" y1="104.35" x2="60.9" y2="104.35" xlink:href="#linear-gradient"/><linearGradient id="linear-gradient-12" x1="64.34" y1="98.14" x2="84.34" y2="98.14" xlink:href="#linear-gradient"/><linearGradient id="linear-gradient-13" x1="68.16" y1="103.31" x2="80.52" y2="103.31" xlink:href="#linear-gradient"/><linearGradient id="linear-gradient-14" x1="64.34" y1="98.33" x2="74.34" y2="98.33" xlink:href="#linear-gradient"/><linearGradient id="linear-gradient-15" x1="74.34" y1="93.93" x2="77.43" y2="93.93" xlink:href="#linear-gradient"/><linearGradient id="linear-gradient-16" x1="74.34" y1="98.33" x2="84.34" y2="98.33" xlink:href="#linear-gradient"/></defs><title>User</title><g class="cls-1"><g id="Layer_1" data-name="Layer 1"><path class="cls-2" d="M50,1.5A45.57,45.57,0,1,0,95.36,47.06,45.46,45.46,0,0,0,50,1.5Zm0,86.89A41.33,41.33,0,1,1,91.13,47.06,41.28,41.28,0,0,1,50,88.39Z"/><path class="cls-3" d="M50,2.2A44.87,44.87,0,1,0,94.66,47.06,44.81,44.81,0,0,0,50,2.2Zm0,86.19A41.33,41.33,0,1,1,91.13,47.06,41.28,41.28,0,0,1,50,88.39Z"/><path class="cls-4" d="M50,5.09a42,42,0,1,0,41.79,42A41.93,41.93,0,0,0,50,5.09Zm0,79.65A37.68,37.68,0,1,1,87.5,47.06,37.63,37.63,0,0,1,50,84.74Z"/><polygon class="cls-5" points="24.81 88.63 27.9 94.89 34.81 95.89 29.81 100.77 30.99 107.65 24.81 104.4 18.63 107.65 19.81 100.77 14.81 95.89 21.72 94.89 24.81 88.63"/><polygon class="cls-6" points="18.63 107.65 24.81 98.97 30.99 107.65 24.81 104.4 18.63 107.65"/><polygon class="cls-7" points="24.81 98.97 19.81 100.77 14.81 95.89 24.81 98.97"/><polygon class="cls-8" points="24.81 88.9 24.81 98.97 27.9 94.89 24.81 88.9"/><polygon class="cls-9" points="34.81 95.89 24.81 98.97 29.81 100.77 34.81 95.89"/><polygon class="cls-10" points="50 93.78 53.37 100.6 60.9 101.69 55.45 107 56.73 114.5 50 110.96 43.27 114.5 44.55 107 39.1 101.69 46.63 100.6 50 93.78"/><polygon class="cls-11" points="43.27 114.5 50 105.04 56.73 114.5 50 110.96 43.27 114.5"/><polygon class="cls-12" points="50 105.04 44.55 107 39.1 101.69 50 105.04"/><polygon class="cls-13" points="50 94.07 50 105.04 53.37 100.6 50 94.07"/><polygon class="cls-14" points="60.9 101.69 50 105.04 55.45 107 60.9 101.69"/><polygon class="cls-15" points="74.34 88.63 77.43 94.89 84.34 95.89 79.34 100.77 80.52 107.65 74.34 104.4 68.16 107.65 69.34 100.77 64.34 95.89 71.25 94.89 74.34 88.63"/><polygon class="cls-16" points="68.16 107.65 74.34 98.97 80.52 107.65 74.34 104.4 68.16 107.65"/><polygon class="cls-17" points="74.34 98.97 69.34 100.77 64.34 95.89 74.34 98.97"/><polygon class="cls-18" points="74.34 88.9 74.34 98.97 77.43 94.89 74.34 88.9"/><polygon class="cls-19" points="84.34 95.89 74.34 98.97 79.34 100.77 84.34 95.89"/></g></g></svg>